<mxfile host="app.diagrams.net" modified="2023-06-20T02:27:15.371Z" agent="Mozilla/5.0 (Windows NT 10.0; Win64; x64) AppleWebKit/537.36 (KHTML, like Gecko) Chrome/114.0.0.0 Safari/537.36" version="21.3.8" etag="QEZeatF5s-cZm8FEyM-k" type="github">
  <diagram name="Page-1" id="nPj4WwZAan1_Srgy3Th_">
    <mxGraphModel>
      <root>
        <mxCell id="0" />
        <mxCell id="1" parent="0" />
      </root>
    </mxGraphModel>
  </diagram>
</mxfile>
